<svg width="800" height="600" xmlns="http://www.w3.org/2000/svg">
 <!-- Created with Method Draw - http://github.com/duopixel/Method-Draw/ -->

 <g>
  <title>background</title>
  <rect fill="#fff" id="canvas_background" height="602" width="802" y="-1" x="-1"/>
 </g>
 <g>
  <title>Layer 1</title>
  <g stroke="null" id="svg_5">
   <path stroke="null" id="svg_4" d="m561.20984,234.21252c0,-98.46583 -111.43624,-178.21869 -248.96604,-178.21869s-248.96604,79.75286 -248.96604,178.21869c0,38.20563 16.87702,73.40382 45.48418,102.47575c-16.03916,33.63878 -42.4918,60.37158 -42.85089,60.70574c-2.63329,2.56189 -3.35147,6.34904 -1.79543,9.69064s4.9075,5.34656 8.73775,5.34656c43.80845,0 80.0761,-13.70056 106.16965,-27.84667c38.54186,17.48771 84.14573,27.84667 133.22077,27.84667c137.5298,0 248.96604,-79.75286 248.96604,-178.21869zm146.02816,245.0507c28.60716,-28.96054 45.48418,-64.27012 45.48418,-102.47575c0,-74.51769 -64.03694,-138.34226 -154.76591,-164.96368c1.07726,7.35152 1.55604,14.81443 1.55604,22.38872c0,117.9585 -128.91174,213.86243 -287.26851,213.86243c-12.92708,0 -25.49508,-0.89109 -37.94338,-2.11635c37.70399,64.04734 126.27845,109.04756 229.45572,109.04756c49.07504,0 94.67891,-10.24757 133.22077,-27.84667c26.09356,14.14611 62.3612,27.84667 106.16965,27.84667c3.83025,0 7.30141,-2.11635 8.73775,-5.34656c1.55604,-3.23021 0.83787,-7.01736 -1.79543,-9.69064c-0.35909,-0.33416 -26.81173,-26.95558 -42.85089,-60.70574z" fill="#000000"/>
  </g>
  <ellipse stroke="#000" ry="30" rx="30" id="svg_17" cy="172.5" cx="234.5" stroke-opacity="null" stroke-width="1.5" fill="#ffffff"/>
  <path id="svg_18" d="m213.5,241.5" opacity="0.5" fill-opacity="null" stroke-opacity="null" stroke-width="1.5" stroke="#000" fill="#333333"/>
  <text stroke="#000" transform="rotate(90.21851348876953 331.4167785644532,278.3855895996094) matrix(28.28993459886337,0,0,12.67690574732962,-17138.97979915055,-1346.3036659742324) " xml:space="preserve" text-anchor="start" font-family="Helvetica, Arial, sans-serif" font-size="24" id="svg_20" y="136.40596" x="613.55746" stroke-opacity="null" stroke-width="0" fill="#ffffff">)</text>
  <ellipse stroke="#000" ry="30" rx="30" id="svg_21" cy="170.5" cx="364.5" stroke-opacity="null" stroke-width="1.5" fill="#ffffff"/>
 </g>
</svg>